<svg xmlns="http://www.w3.org/2000/svg" xmlns:xlink="http://www.w3.org/1999/xlink" viewBox="0 0 95 95"><defs><linearGradient id="a" x1="25.8" y1="59.35" x2="34.85" y2="87.19" gradientUnits="userSpaceOnUse"><stop offset="0" stop-color="#f074ac"/><stop offset="0.5" stop-color="#eb008b"/><stop offset="1" stop-color="#cd118c"/></linearGradient><linearGradient id="b" x1="47.5" y1="37.5" x2="47.5" y2="2.5" gradientUnits="userSpaceOnUse"><stop offset="0" stop-color="#f69453"/><stop offset="0.5" stop-color="#f37521"/><stop offset="1" stop-color="#d4622a"/></linearGradient><linearGradient id="c" x1="35.68" y1="50.17" x2="6.31" y2="28.82" gradientUnits="userSpaceOnUse"><stop offset="0" stop-color="#f37f7b"/><stop offset="0.5" stop-color="#ed3d57"/><stop offset="1" stop-color="#dd1e47"/></linearGradient><linearGradient id="d" x1="59.32" y1="50.17" x2="88.69" y2="28.82" gradientUnits="userSpaceOnUse"><stop offset="0" stop-color="#ffe7a3"/><stop offset="0.5" stop-color="#ffca05"/><stop offset="1" stop-color="#faac18"/></linearGradient><linearGradient id="e" x1="53.28" y1="62.55" x2="82.72" y2="83.94" gradientUnits="userSpaceOnUse"><stop offset="0" stop-color="#fff7a9"/><stop offset="0.5" stop-color="#fff100"/><stop offset="1" stop-color="gold"/></linearGradient></defs><title>Artboard 1</title><polygon points="18.5 92.5 47.5 70.5 30 57.99 18.5 92.5" style="fill:url(#a)"/><polygon points="47.5 2.5 36.5 37.5 58.5 37.5 47.5 2.5" style="fill:url(#b)"/><polygon points="0 37.5 30 57.99 36.5 37.5 0 37.5" style="fill:url(#c)"/><polygon points="95 37.5 58.5 37.5 65 57.99 95 37.5" style="fill:url(#d)"/><polygon points="47.5 70.5 76.5 92.5 65 57.99 47.5 70.5" style="fill:url(#e)"/></svg>